<svg aria-hidden="true" style="position:absolute;width:0;height:0;overflow:hidden" xmlns="http://www.w3.org/2000/svg">
  <defs>
    <symbol id="logo" viewBox="0 0 107 32">
      <path fill="#ff6b0a" style="fill:var(--color1, #ff6b0a)" d="M106.667 0v32H59.536V0h47.131zM74.42 8.811v13.927l.001.044a.842.842 0 0 1-.001.087c-.007.08.015.128.107.115a.485.485 0 0 1 .066-.001l.033.001h3.582c.075.001.112.001.129-.017s.016-.051.014-.116l-.001-.078V8.83l-.001-.033a.485.485 0 0 1 .001-.066c.008-.082-.02-.125-.109-.115-.018.002-.036.001-.054.001l-.028-.001h-3.55l-.062-.001c-.065-.001-.098-.001-.114.015s-.016.049-.015.116l.001.064zm19.579-.194h-5.863c-1.954 0-3.908 0-5.86-.002h-.133c-.066-.003-.089.028-.084.089a.486.486 0 0 1 0 .054v3.398c0 .072-.001.107.017.124s.051.017.118.016H85.923c.12 0 .18 0 .209.03s.029.087.029.2v10.335c-.001.059-.001.09.014.106.017.018.052.017.127.017h3.571c.111 0 .166 0 .193-.028s.027-.08.027-.186V12.488l-.001-.059c-.001-.063-.001-.097.015-.114.018-.019.055-.018.133-.018h3.798c.162 0 .162 0 .164-.159V8.759c.001-.072.001-.108-.016-.126s-.053-.017-.123-.016L94 8.618z"/>
      <path fill="#010101" style="fill:var(--color2, #010101)" d="m47.132 0 12.403 16-12.403 16H0V0h47.132zm-26.38 13.662.215.174a.371.371 0 0 0 .106-.107.256.256 0 0 1 .02-.026c.254-.302.507-.606.76-.91.507-.606 1.012-1.212 1.518-1.82.101-.122.097-.177-.018-.276a12.617 12.617 0 0 0-.277-.233c-.803-.657-1.685-1.17-2.684-1.467a9.43 9.43 0 0 0-2.043-.353c-.905-.061-1.802-.031-2.691.174-3.112.716-5.434 3.292-5.707 6.594a7.795 7.795 0 0 0 .225 2.638c.519 1.96 1.645 3.461 3.434 4.45.975.539 2.03.823 3.14.912.94.076 1.87.018 2.788-.189 1.553-.35 2.925-1.056 4.146-2.067a.333.333 0 0 0 .137-.289c-.004-1.572-.004-3.145-.003-4.717v-1.179a.66.66 0 0 0-.003-.062c-.003-.046-.006-.092.006-.134.015-.049-.012-.077-.037-.104-.021-.022-.042-.044-.039-.077.007-.054-.03-.062-.073-.062h-6.556l-.038.001c-.026.001-.052.002-.077-.001-.066-.007-.087.026-.083.087a.657.657 0 0 1 .001.077l-.001.038V17.839l-.001.074c-.001.063-.002.096.014.112s.052.017.125.016H19.772c.072-.001.107-.001.124.016.016.016.015.048.014.11l-.001.078v.679c0 .308 0 .311-.279.445-.818.391-1.681.503-2.573.391-.991-.123-1.784-.591-2.365-1.401-.378-.527-.585-1.122-.662-1.763-.097-.818.002-1.605.373-2.348.448-.892 1.125-1.533 2.098-1.827.682-.207 1.373-.153 2.056-.003.619.135 1.159.437 1.657.816.182.138.359.281.539.427zm18.346-2.98c-1.528-1.39-3.348-2.052-5.229-2.066-.869.002-1.518.072-2.207.251-1.998.521-3.563 1.638-4.602 3.422-1.067 1.83-1.283 3.793-.687 5.812.667 2.257 2.089 3.9 4.29 4.815 1.69.701 3.44.795 5.206.332 2.051-.537 3.624-1.725 4.654-3.578.869-1.562 1.102-3.238.778-4.987-.291-1.572-1.017-2.919-2.203-4zm-8.437 3.528c.666-1.227 1.729-1.815 2.762-1.838 2.094-.005 3.464 1.173 3.837 2.806.226.984.125 1.94-.358 2.834-.57 1.05-1.458 1.661-2.654 1.797-1.156.133-2.165-.194-2.99-1.025a3.579 3.579 0 0 1-.983-1.914c-.172-.928-.066-1.827.386-2.66z"/>
    </symbol>
    <symbol id="javascript" viewBox="0 0 32 32">
      <path fill="#f7df1e" style="fill:var(--color3, #f7df1e)" d="M0 0h32v32H0V0z"/>
    </symbol>
    <symbol id="icon-phone" viewBox="0 0 32 32">
      <path d="M22 20c-2 2-2 4-4 4s-4-2-6-4-4-4-4-6 2-2 4-4-4-8-6-8-6 6-6 6c0 4 4.109 12.109 8 16s12 8 16 8c0 0 6-4 6-6s-6-8-8-6z"/>
    </symbol>
    <symbol id="icon-checkmark" viewBox="0 0 32 32">
      <path d="M27 4l-15 15-7-7-5 5 12 12 20-20z"/>
    </symbol>
    <symbol id="icon-office" viewBox="0 0 32 32">
      <path d="M0 32h16v-32h-16v32zM10 4h4v4h-4v-4zM10 12h4v4h-4v-4zM10 20h4v4h-4v-4zM2 4h4v4h-4v-4zM2 12h4v4h-4v-4zM2 20h4v4h-4v-4zM18 10h14v2h-14zM18 32h4v-8h6v8h4v-18h-14z"/>
    </symbol>
    <symbol id="icon-folder-open" viewBox="0 0 32 32">
      <path d="M26 30l6-16h-26l-6 16zM4 12l-4 18v-26h9l4 4h13v4z"/>
    </symbol>
    <symbol id="icon-users" viewBox="0 0 36 32">
      <path d="M24 24.082v-1.649c2.203-1.241 4-4.337 4-7.432 0-4.971 0-9-6-9s-6 4.029-6 9c0 3.096 1.797 6.191 4 7.432v1.649c-6.784 0.555-12 3.888-12 7.918h28c0-4.030-5.216-7.364-12-7.918z"/>
      <path d="M10.225 24.854c1.728-1.13 3.877-1.989 6.243-2.513-0.47-0.556-0.897-1.176-1.265-1.844-0.95-1.726-1.453-3.627-1.453-5.497 0-2.689 0-5.228 0.956-7.305 0.928-2.016 2.598-3.265 4.976-3.734-0.529-2.39-1.936-3.961-5.682-3.961-6 0-6 4.029-6 9 0 3.096 1.797 6.191 4 7.432v1.649c-6.784 0.555-12 3.888-12 7.918h8.719c0.454-0.403 0.956-0.787 1.506-1.146z"/>
    </symbol>
    <symbol id="icon-wrench" viewBox="0 0 32 32">
      <path d="M31.342 25.559l-14.392-12.336c0.67-1.259 1.051-2.696 1.051-4.222 0-4.971-4.029-9-9-9-0.909 0-1.787 0.135-2.614 0.386l5.2 5.2c0.778 0.778 0.778 2.051 0 2.828l-3.172 3.172c-0.778 0.778-2.051 0.778-2.828 0l-5.2-5.2c-0.251 0.827-0.386 1.705-0.386 2.614 0 4.971 4.029 9 9 9 1.526 0 2.963-0.38 4.222-1.051l12.336 14.392c0.716 0.835 1.938 0.882 2.716 0.104l3.172-3.172c0.778-0.778 0.731-2-0.104-2.716z"/>
    </symbol>
    <symbol id="icon-menu" viewBox="0 0 32 32">
      <path d="M2 6h28v6h-28zM2 14h28v6h-28zM2 22h28v6h-28z"></path>
    </symbol>
    <symbol id="icon-cross" viewBox="0 0 32 32">
      <path d="M31.708 25.708c-0-0-0-0-0-0l-9.708-9.708 9.708-9.708c0-0 0-0 0-0 0.105-0.105 0.18-0.227 0.229-0.357 0.133-0.356 0.057-0.771-0.229-1.057l-4.586-4.586c-0.286-0.286-0.702-0.361-1.057-0.229-0.13 0.048-0.252 0.124-0.357 0.228 0 0-0 0-0 0l-9.708 9.708-9.708-9.708c-0-0-0-0-0-0-0.105-0.104-0.227-0.18-0.357-0.228-0.356-0.133-0.771-0.057-1.057 0.229l-4.586 4.586c-0.286 0.286-0.361 0.702-0.229 1.057 0.049 0.13 0.124 0.252 0.229 0.357 0 0 0 0 0 0l9.708 9.708-9.708 9.708c-0 0-0 0-0 0-0.104 0.105-0.18 0.227-0.229 0.357-0.133 0.355-0.057 0.771 0.229 1.057l4.586 4.586c0.286 0.286 0.702 0.361 1.057 0.229 0.13-0.049 0.252-0.124 0.357-0.229 0-0 0-0 0-0l9.708-9.708 9.708 9.708c0 0 0 0 0 0 0.105 0.105 0.227 0.18 0.357 0.229 0.356 0.133 0.771 0.057 1.057-0.229l4.586-4.586c0.286-0.286 0.362-0.702 0.229-1.057-0.049-0.13-0.124-0.252-0.229-0.357z"></path>
    </symbol>
  </defs>
</svg>
